<svg width="393" height="81" viewBox="0 0 393 81" fill="none" xmlns="http://www.w3.org/2000/svg">
<g clip-path="url(#clip0_993_730)">
<path d="M95.7898 77.8947H89.9365V67.2944H95.7898V68.3895H91.1574V71.8047H95.5101V72.8922H91.1574V76.7919H95.7898V77.8947Z" fill="white"/>
<path d="M106.318 77.8947H104.924L99.1868 68.9978H99.13C99.2057 70.0433 99.2435 70.9996 99.2435 71.8696V77.8947H98.117V67.2944H99.4945L105.22 76.1547H105.277C105.267 76.025 105.246 75.6052 105.212 74.897C105.178 74.1896 105.166 73.6821 105.176 73.3783V67.2944H106.318V77.8947Z" fill="white"/>
<path d="M113.824 72.3404H117.394V77.4956C116.838 77.6749 116.273 77.8108 115.699 77.9024C115.124 77.9939 114.458 78.0397 113.703 78.0397C112.111 78.0397 110.875 77.5627 109.988 76.6088C109.102 75.6526 108.659 74.3155 108.659 72.5946C108.659 71.4933 108.879 70.5279 109.318 69.6984C109.754 68.8704 110.385 68.2369 111.209 67.7981C112.034 67.3608 112.997 67.1433 114.103 67.1433C115.224 67.1433 116.267 67.3517 117.235 67.7653L116.761 68.8528C115.814 68.4483 114.9 68.2446 114.026 68.2446C112.746 68.2446 111.748 68.63 111.029 69.3969C110.312 70.1654 109.953 71.2323 109.953 72.5946C109.953 74.0255 110.298 75.1107 110.99 75.8495C111.682 76.5897 112.699 76.9599 114.039 76.9599C114.767 76.9599 115.477 76.8759 116.173 76.7057V73.4432H113.824V72.3404Z" fill="white"/>
<path d="M119.915 77.8947V67.2944H121.136V77.8947H119.915Z" fill="white"/>
<path d="M132.219 77.8947H130.825L125.087 68.9978H125.03C125.106 70.0433 125.143 70.9996 125.143 71.8696V77.8947H124.017V67.2944H125.394L131.12 76.1547H131.177C131.167 76.025 131.146 75.6052 131.112 74.897C131.078 74.1896 131.067 73.6821 131.077 73.3783V67.2944H132.219V77.8947Z" fill="white"/>
<path d="M140.96 77.8947H135.107V67.2944H140.96V68.3895H136.328V71.8047H140.68V72.8922H136.328V76.7919H140.96V77.8947Z" fill="white"/>
<path d="M149.14 77.8947H143.287V67.2944H149.14V68.3895H144.507V71.8047H148.861V72.8922H144.507V76.7919H149.14V77.8947Z" fill="white"/>
<path d="M152.689 72.4282H154.361C155.223 72.4282 155.856 72.255 156.256 71.9092C156.659 71.5643 156.861 71.0453 156.861 70.3547C156.861 69.6541 156.656 69.1489 156.247 68.8398C155.837 68.5307 155.18 68.3758 154.276 68.3758H152.689V72.4282ZM152.689 73.4875V77.8947H151.467V67.2944H154.348C155.635 67.2944 156.587 67.544 157.202 68.0423C157.818 68.5399 158.125 69.2878 158.125 70.2898C158.125 71.6917 157.421 72.6381 156.013 73.1303L158.865 77.8947H157.421L154.879 73.4875H152.689Z" fill="white"/>
<path d="M160.561 77.8947V67.2944H161.781V77.8947H160.561Z" fill="white"/>
<path d="M172.864 77.8947H171.47L165.732 68.9978H165.675C165.751 70.0433 165.788 70.9996 165.788 71.8696V77.8947H164.662V67.2944H166.04L171.765 76.1547H171.822C171.812 76.025 171.792 75.6052 171.758 74.897C171.723 74.1896 171.712 73.6821 171.722 73.3783V67.2944H172.864V77.8947Z" fill="white"/>
<path d="M180.369 72.3404H183.94V77.4956C183.384 77.6749 182.819 77.8108 182.244 77.9024C181.669 77.9939 181.004 78.0397 180.248 78.0397C178.657 78.0397 177.42 77.5627 176.534 76.6088C175.647 75.6526 175.205 74.3155 175.205 72.5946C175.205 71.4933 175.424 70.5279 175.863 69.6984C176.3 68.8704 176.931 68.2369 177.754 67.7981C178.579 67.3608 179.543 67.1433 180.649 67.1433C181.77 67.1433 182.812 67.3517 183.78 67.7653L183.306 68.8528C182.36 68.4483 181.446 68.2446 180.571 68.2446C179.292 68.2446 178.294 68.63 177.575 69.3969C176.857 70.1654 176.498 71.2323 176.498 72.5946C176.498 74.0255 176.843 75.1107 177.536 75.8495C178.228 76.5897 179.245 76.9599 180.584 76.9599C181.312 76.9599 182.022 76.8759 182.719 76.7057V73.4432H180.369V72.3404Z" fill="white"/>
<path d="M196.208 75.0749C196.208 76.0074 195.871 76.7347 195.203 77.2575C194.532 77.778 193.622 78.0397 192.473 78.0397C191.228 78.0397 190.269 77.8772 189.6 77.5528V76.3646C190.031 76.5493 190.5 76.6943 191.009 76.7996C191.515 76.9064 192.018 76.9599 192.517 76.9599C193.329 76.9599 193.941 76.8034 194.353 76.492C194.766 76.1791 194.973 75.7464 194.973 75.1908C194.973 74.823 194.899 74.5215 194.752 74.2888C194.607 74.0537 194.363 73.8362 194.021 73.6378C193.68 73.4417 193.157 73.2166 192.458 72.9647C191.48 72.6114 190.784 72.1939 190.366 71.7108C189.947 71.2262 189.736 70.5966 189.736 69.8182C189.736 69.0016 190.041 68.3514 190.65 67.8683C191.256 67.3837 192.061 67.1433 193.061 67.1433C194.106 67.1433 195.066 67.3364 195.943 67.7233L195.561 68.7956C194.694 68.4292 193.85 68.2446 193.033 68.2446C192.386 68.2446 191.882 68.3857 191.517 68.6658C191.154 68.9467 190.972 69.3359 190.972 69.8319C190.972 70.1998 191.038 70.5012 191.173 70.7363C191.307 70.969 191.534 71.1843 191.852 71.3811C192.171 71.5758 192.657 71.7933 193.312 72.0298C194.414 72.4267 195.172 72.8518 195.586 73.3058C196.001 73.7599 196.208 74.3498 196.208 75.0749Z" fill="white"/>
<path d="M199.101 72.5808C199.101 74.0156 199.405 75.1054 200.011 75.8456C200.617 76.5874 201.497 76.9599 202.649 76.9599C203.814 76.9599 204.693 76.5897 205.287 75.8495C205.879 75.1107 206.177 74.0217 206.177 72.5808C206.177 71.1537 205.881 70.0723 205.291 69.3359C204.699 68.5994 203.824 68.2308 202.665 68.2308C201.501 68.2308 200.617 68.601 200.011 69.3435C199.405 70.0853 199.101 71.1636 199.101 72.5808ZM207.47 72.5808C207.47 74.2773 207.045 75.6106 206.195 76.5821C205.345 77.5528 204.165 78.0397 202.649 78.0397C201.105 78.0397 199.908 77.5627 199.07 76.6088C198.228 75.6526 197.808 74.3056 197.808 72.5656C197.808 70.8408 198.23 69.5038 199.074 68.5536C199.916 67.6035 201.112 67.1281 202.665 67.1281C204.172 67.1281 205.351 67.6111 206.197 68.5781C207.046 69.5458 207.47 70.879 207.47 72.5808Z" fill="white"/>
<path d="M217.74 67.2944V74.1529C217.74 75.3626 217.38 76.3112 216.656 77.0034C215.934 77.694 214.939 78.0397 213.675 78.0397C212.41 78.0397 211.432 77.6925 210.741 76.9957C210.05 76.2997 209.704 75.342 209.704 74.1247V67.2944H210.925V74.2125C210.925 75.0954 211.163 75.7747 211.643 76.2478C212.121 76.7233 212.824 76.9599 213.755 76.9599C214.641 76.9599 215.323 76.721 215.801 76.2463C216.279 75.7693 216.519 75.0863 216.519 74.1972V67.2944H217.74Z" fill="white"/>
<path d="M220.521 77.8947V67.2944H221.743V76.7782H226.374V77.8947H220.521Z" fill="white"/>
<path d="M227.803 77.1254C227.803 76.8034 227.876 76.5569 228.023 76.3913C228.168 76.2234 228.377 76.1394 228.65 76.1394C228.929 76.1394 229.146 76.2234 229.301 76.3913C229.456 76.5569 229.533 76.8034 229.533 77.1254C229.533 77.4406 229.456 77.6825 229.297 77.8504C229.138 78.0206 228.923 78.1046 228.65 78.1046C228.406 78.1046 228.203 78.0282 228.043 77.8756C227.882 77.7245 227.803 77.4749 227.803 77.1254Z" fill="white"/>
<path d="M237.112 77.8947H235.891V67.2944H241.746V68.3895H237.112V72.2679H241.465V73.3631H237.112V77.8947Z" fill="white"/>
<path d="M244.705 72.4282H246.377C247.239 72.4282 247.874 72.255 248.274 71.9092C248.677 71.5643 248.878 71.0453 248.878 70.3547C248.878 69.6541 248.673 69.1489 248.265 68.8398C247.854 68.5307 247.196 68.3758 246.292 68.3758H244.705V72.4282ZM244.705 73.4875V77.8947H243.484V67.2944H246.364C247.651 67.2944 248.605 67.544 249.219 68.0423C249.834 68.5399 250.14 69.2878 250.14 70.2898C250.14 71.6917 249.437 72.6381 248.03 73.1303L250.881 77.8947H249.437L246.896 73.4875H244.705Z" fill="white"/>
<path d="M253.324 72.5808C253.324 74.0156 253.626 75.1054 254.234 75.8456C254.837 76.5874 255.718 76.9599 256.872 76.9599C258.037 76.9599 258.916 76.5897 259.508 75.8495C260.102 75.1107 260.398 74.0217 260.398 72.5808C260.398 71.1537 260.104 70.0723 259.512 69.3359C258.921 68.5994 258.045 68.2308 256.887 68.2308C255.722 68.2308 254.837 68.601 254.234 69.3435C253.626 70.0853 253.324 71.1636 253.324 72.5808ZM261.691 72.5808C261.691 74.2773 261.267 75.6106 260.417 76.5821C259.568 77.5528 258.385 78.0397 256.872 78.0397C255.325 78.0397 254.131 77.5627 253.291 76.6088C252.451 75.6526 252.031 74.3056 252.031 72.5656C252.031 70.8408 252.453 69.5038 253.295 68.5536C254.139 67.6035 255.335 67.1281 256.887 67.1281C258.395 67.1281 259.574 67.6111 260.419 68.5781C261.267 69.5458 261.691 70.879 261.691 72.5808Z" fill="white"/>
<path d="M268.68 77.8947L265.119 68.4979H265.059C265.128 69.242 265.159 70.1273 265.159 71.1522V77.8947H264.033V67.2944H265.872L269.197 76.0379H269.253L272.609 67.2944H274.432V77.8947H273.211V71.0644C273.211 70.2822 273.246 69.4313 273.312 68.5132H273.255L269.663 77.8947H268.68Z" fill="white"/>
<path d="M287.061 75.0749C287.061 76.0074 286.724 76.7347 286.055 77.2575C285.383 77.778 284.475 78.0397 283.326 78.0397C282.079 78.0397 281.121 77.8772 280.453 77.5528V76.3646C280.883 76.5493 281.352 76.6943 281.861 76.7996C282.368 76.9064 282.871 76.9599 283.368 76.9599C284.181 76.9599 284.795 76.8034 285.207 76.492C285.619 76.1791 285.824 75.7464 285.824 75.1908C285.824 74.823 285.753 74.5215 285.606 74.2888C285.461 74.0537 285.217 73.8362 284.874 73.6378C284.532 73.4417 284.009 73.2166 283.31 72.9647C282.333 72.6114 281.636 72.1939 281.218 71.7108C280.798 71.2262 280.589 70.5966 280.589 69.8182C280.589 69.0016 280.893 68.3514 281.503 67.8683C282.108 67.3837 282.913 67.1433 283.914 67.1433C284.959 67.1433 285.919 67.3364 286.794 67.7233L286.415 68.7956C285.546 68.4292 284.704 68.2446 283.885 68.2446C283.239 68.2446 282.733 68.3857 282.37 68.6658C282.006 68.9467 281.826 69.3359 281.826 69.8319C281.826 70.1998 281.892 70.5012 282.025 70.7363C282.159 70.969 282.387 71.1843 282.704 71.3811C283.024 71.5758 283.51 71.7933 284.166 72.0298C285.267 72.4267 286.026 72.8518 286.438 73.3058C286.852 73.7599 287.061 74.3498 287.061 75.0749Z" fill="white"/>
<path d="M289.955 72.5808C289.955 74.0156 290.257 75.1054 290.865 75.8456C291.468 76.5874 292.349 76.9599 293.503 76.9599C294.666 76.9599 295.545 76.5897 296.139 75.8495C296.733 75.1107 297.029 74.0217 297.029 72.5808C297.029 71.1537 296.735 70.0723 296.143 69.3359C295.55 68.5994 294.675 68.2308 293.518 68.2308C292.353 68.2308 291.468 68.601 290.865 69.3435C290.257 70.0853 289.955 71.1636 289.955 72.5808ZM298.322 72.5808C298.322 74.2773 297.896 75.6106 297.048 76.5821C296.197 77.5528 295.016 78.0397 293.503 78.0397C291.956 78.0397 290.762 77.5627 289.922 76.6088C289.082 75.6526 288.662 74.3056 288.662 72.5656C288.662 70.8408 289.084 69.5038 289.926 68.5536C290.77 67.6035 291.966 67.1281 293.518 67.1281C295.026 67.1281 296.203 67.6111 297.05 68.5781C297.898 69.5458 298.322 70.879 298.322 72.5808Z" fill="white"/>
<path d="M308.594 67.2944V74.1529C308.594 75.3626 308.232 76.3112 307.508 77.0034C306.786 77.694 305.791 78.0397 304.527 78.0397C303.263 78.0397 302.286 77.6925 301.593 76.9957C300.902 76.2997 300.555 75.342 300.555 74.1247V67.2944H301.777V74.2125C301.777 75.0954 302.015 75.7747 302.495 76.2478C302.973 76.7233 303.677 76.9599 304.606 76.9599C305.493 76.9599 306.176 76.721 306.654 76.2463C307.132 75.7693 307.372 75.0863 307.372 74.1972V67.2944H308.594Z" fill="white"/>
<path d="M312.594 72.4282H314.266C315.13 72.4282 315.763 72.255 316.163 71.9092C316.566 71.5643 316.767 71.0453 316.767 70.3547C316.767 69.6541 316.562 69.1489 316.154 68.8398C315.743 68.5307 315.085 68.3758 314.181 68.3758H312.594V72.4282ZM312.594 73.4875V77.8947H311.373V67.2944H314.253C315.542 67.2944 316.494 67.544 317.108 68.0423C317.723 68.5399 318.031 69.2878 318.031 70.2898C318.031 71.6917 317.326 72.6381 315.919 73.1303L318.77 77.8947H317.326L314.785 73.4875H312.594Z" fill="white"/>
<path d="M324.964 68.2446C323.808 68.2446 322.897 68.6338 322.231 69.4084C321.561 70.1845 321.228 71.2453 321.228 72.5946C321.228 73.9812 321.55 75.0535 322.194 75.8113C322.837 76.5668 323.756 76.9446 324.948 76.9446C325.682 76.9446 326.516 76.8126 327.455 76.5455V77.6253C326.727 77.9024 325.829 78.0397 324.761 78.0397C323.214 78.0397 322.02 77.5666 321.182 76.618C320.34 75.6716 319.92 74.3247 319.92 72.5808C319.92 71.488 320.123 70.5318 320.528 69.7098C320.932 68.8871 321.515 68.2537 322.279 67.8096C323.042 67.3646 323.942 67.1433 324.977 67.1433C326.079 67.1433 327.041 67.3456 327.865 67.7523L327.346 68.8108C326.553 68.4331 325.757 68.2446 324.964 68.2446Z" fill="white"/>
<path d="M335.601 77.8947H329.746V67.2944H335.601V68.3895H330.968V71.8047H335.321V72.8922H330.968V76.7919H335.601V77.8947Z" fill="white"/>
<path d="M344.981 77.8947H343.761V68.3895H340.434V67.2944H348.306V68.3895H344.981V77.8947Z" fill="white"/>
<path d="M350.632 72.5808C350.632 74.0156 350.936 75.1054 351.542 75.8456C352.148 76.5874 353.028 76.9599 354.18 76.9599C355.345 76.9599 356.224 76.5897 356.818 75.8495C357.41 75.1107 357.708 74.0217 357.708 72.5808C357.708 71.1537 357.412 70.0723 356.822 69.3359C356.23 68.5994 355.355 68.2308 354.195 68.2308C353.032 68.2308 352.148 68.601 351.542 69.3435C350.936 70.0853 350.632 71.1636 350.632 72.5808ZM359.001 72.5808C359.001 74.2773 358.575 75.6106 357.726 76.5821C356.876 77.5528 355.695 78.0397 354.18 78.0397C352.635 78.0397 351.439 77.5627 350.601 76.6088C349.759 75.6526 349.339 74.3056 349.339 72.5656C349.339 70.8408 349.761 69.5038 350.605 68.5536C351.447 67.6035 352.643 67.1281 354.195 67.1281C355.703 67.1281 356.882 67.6111 357.728 68.5781C358.577 69.5458 359.001 70.879 359.001 72.5808Z" fill="white"/>
<path d="M371.09 75.0749C371.09 76.0074 370.753 76.7347 370.084 77.2575C369.412 77.778 368.504 78.0397 367.355 78.0397C366.108 78.0397 365.15 77.8772 364.483 77.5528V76.3646C364.912 76.5493 365.381 76.6943 365.89 76.7996C366.397 76.9064 366.9 76.9599 367.397 76.9599C368.21 76.9599 368.824 76.8034 369.236 76.492C369.648 76.1791 369.854 75.7464 369.854 75.1908C369.854 74.823 369.782 74.5215 369.635 74.2888C369.49 74.0537 369.246 73.8362 368.903 73.6378C368.561 73.4417 368.04 73.2166 367.339 72.9647C366.362 72.6114 365.665 72.1939 365.247 71.7108C364.827 71.2262 364.618 70.5966 364.618 69.8182C364.618 69.0016 364.922 68.3514 365.532 67.8683C366.137 67.3837 366.943 67.1433 367.943 67.1433C368.988 67.1433 369.948 67.3364 370.823 67.7233L370.444 68.7956C369.575 68.4292 368.733 68.2446 367.914 68.2446C367.268 68.2446 366.763 68.3857 366.399 68.6658C366.035 68.9467 365.855 69.3359 365.855 69.8319C365.855 70.1998 365.921 70.5012 366.054 70.7363C366.188 70.969 366.416 71.1843 366.734 71.3811C367.053 71.5758 367.539 71.7933 368.195 72.0298C369.296 72.4267 370.055 72.8518 370.467 73.3058C370.881 73.7599 371.09 74.3498 371.09 75.0749Z" fill="white"/>
<path d="M379.09 77.8947H373.237V67.2944H379.09V68.3895H374.458V71.8047H378.811V72.8922H374.458V76.7919H379.09V77.8947Z" fill="white"/>
<path d="M386.33 73.415L385.109 70.1296C384.95 69.7136 384.788 69.2038 384.621 68.5994C384.515 69.065 384.364 69.574 384.168 70.1296L382.933 73.415H386.33ZM388.018 77.8947L386.71 74.5231H382.502L381.209 77.8947H379.974L384.124 67.2524H385.152L389.282 77.8947H388.018Z" fill="white"/>
<path d="M72.8128 40.5723C72.8128 60.4663 57.4899 76.5928 38.5895 76.5928C19.6884 76.5928 4.36548 60.4663 4.36548 40.5723C4.36548 20.6791 19.6884 4.55193 38.5895 4.55193C57.4899 4.55193 72.8128 20.6791 72.8128 40.5723Z" stroke="white" stroke-width="2.13333" stroke-miterlimit="10"/>
<mask id="mask0_993_730" style="mask-type:luminance" maskUnits="userSpaceOnUse" x="34" y="-1" width="10" height="10">
<path d="M34.2784 8.80884H43.0094V-0.00484657H34.2784V8.80884Z" fill="white"/>
</mask>
<g mask="url(#mask0_993_730)">
<path d="M38.6439 8.80884C41.0557 8.80884 43.0094 6.83619 43.0094 4.40248C43.0094 1.96877 41.0557 -0.00484657 38.6439 -0.00484657C36.2321 -0.00484657 34.2784 1.96877 34.2784 4.40248C34.2784 6.83619 36.2321 8.80884 38.6439 8.80884Z" fill="white"/>
</g>
<mask id="mask1_993_730" style="mask-type:luminance" maskUnits="userSpaceOnUse" x="88" y="1" width="306" height="58">
<path d="M88.4917 58.0457H393.01V1.45884H88.4917V58.0457Z" fill="white"/>
</mask>
<g mask="url(#mask1_993_730)">
<path d="M128.235 30.9848V55.4211H126.743V30.9848H92.4701V54.6825V55.4211H90.9784V54.6825V30.9848V29.5035V5.80503V5.06712H92.4701V5.80503V29.5035H126.743V5.80503V5.06712H128.235V5.80503V29.5035V30.9848ZM143.062 54.9771L142.913 55.4211H141.276L141.723 54.3841L163.331 5.51041C163.556 4.99385 164.447 4.99385 164.673 5.51041L186.28 54.3841L186.727 55.4211H185.091L184.941 54.9771L164 7.6581L143.062 54.9771ZM234.792 5.06712H235.533V6.5484H201.259V29.5035H225.625H226.37V30.9848H225.625H201.259V53.9399H234.792H235.533V55.4211H234.792H200.514C200.067 55.4211 199.769 55.1265 199.769 54.6825V30.9848V29.5035V5.80503C199.769 5.36174 200.067 5.06712 200.514 5.06712H234.792ZM252.674 55.4211C252.226 55.4211 251.928 55.1265 251.928 54.6825V5.80503C251.928 5.36174 252.226 5.06712 252.674 5.06712H271.303H271.374C283.072 6.02716 291.869 17.3578 290.677 30.2461C291.869 43.1305 283.072 54.4603 271.374 55.4211H271.303H252.674ZM253.419 53.9399H271.303C282.182 52.979 290.228 42.3871 289.185 30.3186V30.1689C290.228 18.1004 282.182 7.50845 271.303 6.5484H253.419V53.9399ZM342.089 5.06712H342.836V6.5484H308.559V29.5035H332.923H333.668V30.9848H332.923H308.559V53.9399H342.089H342.836V55.4211H342.089H307.812C307.365 55.4211 307.066 55.1265 307.066 54.6825V30.9848V29.5035V5.80503C307.066 5.36174 307.365 5.06712 307.812 5.06712H342.089ZM388.957 18.024V18.7666H387.468V18.024C387.468 11.5815 380.762 6.5484 372.639 6.5484C364.519 6.5484 357.811 11.5815 357.811 18.024C357.811 29.4302 390.598 29.4302 390.525 42.4643C390.525 49.3502 382.55 55.4211 372.639 55.4211C362.508 55.4211 354.755 49.4227 354.755 42.4643V41.7217H356.247V42.4643C356.247 48.8298 363.697 53.9399 372.639 53.9399C381.358 53.9399 389.032 48.7573 389.032 42.4643C389.032 30.8351 356.396 30.9848 356.321 18.024C356.321 10.9923 363.476 5.06712 372.639 5.06712C381.805 5.06712 388.957 10.9923 388.957 18.024Z" fill="white"/>
<path d="M128.235 30.9848V55.4211H126.743V30.9848H92.4701V54.6825V55.4211H90.9784V54.6825V30.9848V29.5035V5.80503V5.06712H92.4701V5.80503V29.5035H126.743V5.80503V5.06712H128.235V5.80503V29.5035V30.9848ZM143.062 54.9771L142.913 55.4211H141.276L141.723 54.3841L163.331 5.51041C163.556 4.99386 164.447 4.99386 164.673 5.51041L186.28 54.3841L186.727 55.4211H185.091L184.941 54.9771L164 7.6581L143.062 54.9771ZM234.792 5.06712H235.533V6.54841H201.259V29.5035H225.625H226.37V30.9848H225.625H201.259V53.9399H234.792H235.533V55.4211H234.792H200.514C200.067 55.4211 199.769 55.1265 199.769 54.6825V30.9848V29.5035V5.80503C199.769 5.36174 200.067 5.06712 200.514 5.06712H234.792ZM252.674 55.4211C252.226 55.4211 251.928 55.1265 251.928 54.6825V5.80503C251.928 5.36174 252.226 5.06712 252.674 5.06712H271.303H271.374C283.072 6.02716 291.869 17.3578 290.677 30.2461C291.869 43.1305 283.072 54.4603 271.374 55.4211H271.303H252.674ZM253.419 53.9399H271.303C282.182 52.979 290.228 42.3871 289.185 30.3186V30.1689C290.228 18.1004 282.182 7.50845 271.303 6.54841H253.419V53.9399ZM342.089 5.06712H342.836V6.54841H308.559V29.5035H332.923H333.668V30.9848H332.923H308.559V53.9399H342.089H342.836V55.4211H342.089H307.812C307.365 55.4211 307.066 55.1265 307.066 54.6825V30.9848V29.5035V5.80503C307.066 5.36174 307.365 5.06712 307.812 5.06712H342.089ZM388.957 18.024V18.7666H387.468V18.024C387.468 11.5815 380.762 6.54841 372.639 6.54841C364.519 6.54841 357.811 11.5815 357.811 18.024C357.811 29.4302 390.598 29.4302 390.525 42.4643C390.525 49.3502 382.55 55.4211 372.639 55.4211C362.508 55.4211 354.755 49.4227 354.755 42.4643V41.7217H356.247V42.4643C356.247 48.8298 363.697 53.9399 372.639 53.9399C381.358 53.9399 389.032 48.7573 389.032 42.4643C389.032 30.8351 356.396 30.9848 356.321 18.024C356.321 10.9923 363.476 5.06712 372.639 5.06712C381.805 5.06712 388.957 10.9923 388.957 18.024Z" stroke="white" stroke-width="1.73333"/>
</g>
<mask id="mask2_993_730" style="mask-type:luminance" maskUnits="userSpaceOnUse" x="34" y="72" width="10" height="9">
<path d="M34.2784 81H43.0094V72.1863H34.2784V81Z" fill="white"/>
</mask>
<g mask="url(#mask2_993_730)">
<path d="M38.6439 81C41.0557 81 43.0094 79.0272 43.0094 76.5935C43.0094 74.159 41.0557 72.1863 38.6439 72.1863C36.2321 72.1863 34.2784 74.159 34.2784 76.5935C34.2784 79.0272 36.2321 81 38.6439 81Z" fill="white"/>
</g>
<mask id="mask3_993_730" style="mask-type:luminance" maskUnits="userSpaceOnUse" x="0" y="35" width="9" height="10">
<path d="M0 44.0204H8.73161V35.2065H0V44.0204Z" fill="white"/>
</mask>
<g mask="url(#mask3_993_730)">
<path d="M4.36543 44.0204C6.77721 44.0204 8.73161 42.0476 8.73161 39.6131C8.73161 37.1793 6.77721 35.2065 4.36543 35.2065C1.95439 35.2065 0 37.1793 0 39.6131C0 42.0476 1.95439 44.0204 4.36543 44.0204Z" fill="white"/>
</g>
<mask id="mask4_993_730" style="mask-type:luminance" maskUnits="userSpaceOnUse" x="68" y="35" width="10" height="10">
<path d="M68.4467 44.0204H77.1782V35.2065H68.4467V44.0204Z" fill="white"/>
</mask>
<g mask="url(#mask4_993_730)">
<path d="M72.8127 44.0204C75.2238 44.0204 77.1782 42.0476 77.1782 39.6131C77.1782 37.1793 75.2238 35.2065 72.8127 35.2065C70.4009 35.2065 68.4467 37.1793 68.4467 39.6131C68.4467 42.0476 70.4009 44.0204 72.8127 44.0204Z" fill="white"/>
</g>
<mask id="mask5_993_730" style="mask-type:luminance" maskUnits="userSpaceOnUse" x="15" y="16" width="47" height="37">
<path d="M15.598 52.0473H61.9264V16.0162H15.598V52.0473Z" fill="white"/>
</mask>
<g mask="url(#mask5_993_730)">
<path d="M60.3803 32.6737C60.27 32.9217 60.1496 33.1422 60.0333 33.3757C60.1618 32.998 60.223 32.756 60.223 32.756C58.02 21.8688 52.8273 21.8688 52.8273 21.8688C49.5226 15.9306 41.0255 16.9205 41.0255 16.9205C21.8717 12.3094 16.9642 26.7394 16.3828 28.7312C16.2399 28.822 16.162 28.8793 16.162 28.8793C13.8017 44.7147 28.5929 41.4157 28.5929 41.4157C31.5832 49.9928 40.5528 46.3648 40.5528 46.3648C42.1761 51.6427 48.1066 51.9725 48.1066 51.9725C48.1308 51.9754 48.1543 51.974 48.1784 51.9762C49.32 52.1006 50.1163 52.0229 50.1163 52.0229C50.4571 51.8932 50.7641 51.7206 51.0741 51.5526C54.1815 50.2333 55.8168 46.5295 55.8168 46.5295C65.101 41.7453 60.3803 32.6737 60.3803 32.6737Z" fill="#94DAC0"/>
</g>
<path d="M34.0751 23.8186C34.1394 23.6035 34.2081 23.4607 34.2422 23.3966C34.1802 23.5271 34.1189 23.6607 34.0751 23.8186ZM59.8155 31.0099C51.2351 40.9677 41.1758 34.0923 36.2003 29.4425C33.6389 26.7323 33.8158 24.6888 34.0751 23.8186C34.0759 23.8172 34.8938 21.6146 39.8574 23.109C31.9695 14.9852 18.8467 24.13 18.8467 24.13C14.5471 28.4633 15.3024 35.0875 15.3024 35.0875C17.7134 44.9735 27.5512 42.9747 27.5512 42.9747C33.6706 29.8858 44.0512 39.5093 44.0512 39.5093C61.2466 46.7227 59.8155 31.0099 59.8155 31.0099Z" fill="#0A85A9"/>
<path d="M59.8366 31.0656C59.8366 31.0656 59.86 32.6477 59.4079 34.5785C59.8064 32.6225 59.8366 31.0656 59.8366 31.0656C58.8176 43.6388 50.1826 41.6279 46.6761 40.2716C45.9315 39.9993 44.8525 39.3735 44.8525 39.3735L44.854 39.3749C41.4958 37.1037 31.6248 31.6693 27.5458 43.0128C27.5458 43.0128 30.0816 49.4327 39.3189 46.8028C39.3189 46.8028 46.2187 56.7758 52.9929 50.4744C52.9929 50.4744 55.302 47.985 55.8031 46.5539C55.8031 46.5539 65.7588 42.1468 59.8366 31.0656Z" fill="#968574"/>
</g>
<defs>
<clipPath id="clip0_993_730">
<rect width="393" height="81" fill="white"/>
</clipPath>
</defs>
</svg>
